# xmcd
#
# Track frame offsets:
#	150
#	18195
#	36195
#	56145
#	75570
#	93120
#	115245
#	131220
#
# Disc length: 1974 seconds
# Revision: 0
# Processed by: cddbd v1.5.2PL0 Copyright (c) Steve Scherf et al.
# Submitted via: dBpowerAMP V12.0
#
DISCID=5f07b408
DTITLE=The Black Sorrows - Crooked Little Thoughts
DYEAR=2012
DGENRE=Blues
TTITLE0=Lover's Story
TTITLE1=I'm The One
TTITLE2=Perfect Ending
TTITLE3=Nothin' Lasts Forever
TTITLE4=A Fool and the Moon
TTITLE5=How Could I Have Been So Wrong?
TTITLE6=The Romantic Death of Me
TTITLE7=The End of Time
EXTD=
EXTT0=
EXTT1=
EXTT2=
EXTT3=
EXTT4=
EXTT5=
EXTT6=
EXTT7=
PLAYORDER=
